<?xml version="1.0" encoding="UTF-8" standalone="no"?>
<!DOCTYPE svg PUBLIC "-//W3C//DTD SVG 1.1//EN" "http://www.w3.org/Graphics/SVG/1.1/DTD/svg11.dtd">
<svg width="100%" height="100%" viewBox="0 0 79 77" version="1.1" xmlns="http://www.w3.org/2000/svg" xmlns:xlink="http://www.w3.org/1999/xlink" xml:space="preserve" xmlns:serif="http://www.serif.com/" style="fill-rule:evenodd;clip-rule:evenodd;stroke-linejoin:round;stroke-miterlimit:2;">
    <g transform="matrix(1,0,0,1,-24,-20)">
        <path d="M103.013,42C103.013,29.858 93.155,20 81.013,20L46,20C33.858,20 24,29.858 24,42L24,76C24,88.142 33.858,98 46,98L81.013,98C93.155,98 103.013,88.142 103.013,76L103.013,42Z" style="fill:white;fill-opacity:0.7;"/>
    </g>
    <g transform="matrix(1,0,0,1,-24,-20)">
        <rect x="57.333" y="58.667" width="1.333" height="1.333" style="fill:rgb(0,160,227);fill-rule:nonzero;"/>
    </g>
    <g transform="matrix(1,0,0,1,-24,-20)">
        <rect x="68" y="74" width="2.667" height="1.333" style="fill:rgb(0,160,227);fill-rule:nonzero;"/>
    </g>
    <g transform="matrix(1,0,0,1,-24,-20)">
        <path d="M85.998,65.276L84.664,49.942C84.65,49.776 84.574,49.622 84.451,49.509C84.328,49.396 84.168,49.334 84.001,49.333L83.992,49.333C83.011,49.331 82.064,49.692 81.333,50.348L81.333,46.667C81.334,45.027 80.73,43.444 79.636,42.222L78.642,43.111C79.517,44.089 80.001,45.355 80,46.667L80,56.089L77.866,54.87L76.911,52.483L77.156,52.3C77.411,52.108 77.624,51.866 77.782,51.59C77.94,51.313 78.04,51.007 78.076,50.691L78.663,45.407C78.674,45.303 78.661,45.198 78.624,45.099C78.587,45.001 78.528,44.913 78.451,44.842C78.373,44.771 78.28,44.72 78.179,44.692C78.078,44.663 77.972,44.659 77.869,44.68L72.749,45.704C72.164,45.821 71.646,46.158 71.302,46.645C70.957,47.131 70.812,47.732 70.896,48.322L71.242,50.744C71.285,51.048 71.387,51.34 71.543,51.604C71.7,51.868 71.907,52.098 72.152,52.281L72.422,52.483L71.467,54.87L69.333,56.089L69.333,46.667C69.334,45.701 69.596,44.753 70.092,43.925C70.589,43.097 71.301,42.419 72.152,41.964C73.004,41.508 73.963,41.293 74.928,41.34C75.892,41.387 76.826,41.695 77.629,42.231L78.371,41.123C77.367,40.453 76.2,40.067 74.994,40.008C73.788,39.949 72.589,40.218 71.524,40.787C70.46,41.356 69.57,42.204 68.949,43.239C68.328,44.275 68,45.459 68,46.667L68,56.69C67.89,56.675 67.778,56.667 67.667,56.667L66.667,56.667L66.667,56.578C66.666,56.272 66.572,55.975 66.398,55.724C66.225,55.473 65.979,55.281 65.693,55.173L61.177,53.479L60.336,51.376L60.868,51.057C61.212,50.849 61.497,50.556 61.696,50.205C61.894,49.855 61.999,49.459 62,49.056L62,44.209C62.436,43.555 62.668,42.786 62.667,42L62.667,40.667C62.667,40.49 62.596,40.32 62.471,40.195C62.346,40.07 62.177,40 62,40L56.1,40C55.19,40.001 54.317,40.363 53.673,41.007C53.03,41.65 52.668,42.523 52.667,43.433L52.667,45.333C52.667,45.51 52.737,45.68 52.862,45.805C52.987,45.93 53.157,46 53.333,46L54,46L54,49.056C54.001,49.459 54.106,49.855 54.304,50.205C54.503,50.556 54.788,50.849 55.133,51.057L55.665,51.376L54.824,53.479L52,54.538L52,53.326C52,52.801 51.897,52.281 51.695,51.796C51.494,51.311 51.199,50.87 50.828,50.5C50.456,50.129 50.015,49.835 49.529,49.635C49.044,49.435 48.524,49.332 47.999,49.333C47.832,49.334 47.672,49.396 47.549,49.509C47.426,49.622 47.35,49.776 47.336,49.942L46.003,65.276C45.99,65.423 46.026,65.57 46.106,65.694L49.106,70.361L50.227,69.64L47.351,65.165L48.605,50.734C49.191,50.87 49.714,51.2 50.088,51.67C50.463,52.141 50.666,52.725 50.667,53.326L50.667,63.333C50.667,63.437 50.691,63.539 50.737,63.632L54.07,70.298L55.263,69.702L52.259,63.694C52.941,63.487 53.67,63.492 54.349,63.708C55.027,63.925 55.625,64.342 56.061,64.906L58.977,68.697C59.477,69.349 59.815,70.11 59.963,70.918C60.111,71.726 60.064,72.557 59.827,73.343L58.695,77.087C58.676,77.149 58.667,77.214 58.667,77.28L58.667,80L60,80L60,77.378L61.104,73.729C61.421,72.678 61.467,71.564 61.237,70.49L63.773,69.475L65.467,71.733C65.529,71.816 65.609,71.883 65.702,71.93C65.794,71.976 65.897,72 66,72C66.104,72 66.206,71.976 66.298,71.93C66.391,71.883 66.471,71.816 66.533,71.733L68.227,69.475L70.763,70.49C70.533,71.563 70.579,72.678 70.896,73.729L72,77.378L72,80L73.333,80L73.333,77.279C73.333,77.214 73.324,77.149 73.305,77.086L72.173,73.343C71.936,72.557 71.889,71.725 72.037,70.918C72.185,70.11 72.523,69.349 73.023,68.697L75.939,64.905C76.375,64.342 76.973,63.924 77.652,63.708C78.331,63.491 79.059,63.487 79.741,63.694L76.737,69.702L77.93,70.298L81.263,63.631C81.309,63.539 81.333,63.437 81.333,63.333L81.333,53.326C81.334,52.725 81.537,52.141 81.912,51.67C82.286,51.2 82.809,50.87 83.395,50.734L84.649,65.164L78.773,74.306C78.703,74.414 78.667,74.539 78.667,74.667L78.667,80L80,80L80,74.863L85.894,65.694C85.974,65.57 86.01,65.423 85.998,65.276ZM74.667,53.58C75.062,53.581 75.452,53.481 75.798,53.29L76.57,55.22L74.667,57.6L72.763,55.22L73.535,53.29C73.882,53.481 74.271,53.581 74.667,53.58ZM73.01,47.011L77.237,46.166L76.75,50.543C76.735,50.679 76.692,50.81 76.624,50.928C76.557,51.047 76.465,51.151 76.356,51.233L75.267,52.05C75.093,52.179 74.883,52.249 74.667,52.249C74.451,52.249 74.24,52.179 74.067,52.05L72.952,51.214C72.847,51.136 72.758,51.037 72.691,50.924C72.625,50.811 72.581,50.686 72.562,50.556L72.217,48.133C72.181,47.88 72.243,47.623 72.39,47.414C72.538,47.206 72.76,47.061 73.01,47.011ZM66.086,65.838C66.06,65.853 66.03,65.862 66,65.862C65.97,65.862 65.94,65.853 65.914,65.838L63.414,64.338C63.39,64.323 63.369,64.302 63.355,64.277C63.341,64.252 63.333,64.224 63.333,64.195L63.333,61.188L63.358,61.206C64.576,62.092 66.36,62.578 68.667,62.656L68.667,64.195C68.667,64.224 68.659,64.252 68.645,64.277C68.631,64.302 68.61,64.323 68.586,64.338L66.086,65.838ZM68.667,59L68.667,61.321C64.438,61.166 63.485,59.548 63.333,59.215L63.333,59C63.334,58.735 63.439,58.481 63.627,58.293C63.814,58.106 64.068,58 64.333,58L67.667,58C67.932,58 68.186,58.106 68.374,58.293C68.561,58.481 68.666,58.735 68.667,59ZM58,52.39C58.414,52.39 58.82,52.28 59.177,52.071L59.884,53.839L58,55.724L56.116,53.839L56.823,52.071C57.18,52.28 57.586,52.39 58,52.39ZM54,43.433C54.001,42.877 54.222,42.343 54.616,41.949C55.009,41.555 55.543,41.334 56.1,41.333L61.333,41.333L61.333,42C61.333,42.707 61.051,43.385 60.551,43.885C60.051,44.385 59.374,44.666 58.667,44.667L54,44.667L54,43.433ZM55.333,49.057L55.333,46L58.667,46C59.369,46.001 60.059,45.816 60.667,45.463L60.667,49.056C60.666,49.229 60.621,49.399 60.536,49.549C60.451,49.699 60.329,49.825 60.181,49.914L58.515,50.914C58.359,51.007 58.181,51.057 58,51.057C57.819,51.057 57.641,51.007 57.486,50.914L55.819,49.914C55.671,49.825 55.549,49.699 55.464,49.549C55.379,49.399 55.334,49.229 55.333,49.056L55.333,49.057ZM60.034,67.884L57.117,64.093C56.529,63.333 55.729,62.765 54.818,62.46C53.907,62.156 52.927,62.128 52,62.381L52,55.962L55.166,54.775L57.529,57.138C57.591,57.2 57.664,57.249 57.745,57.283C57.826,57.316 57.912,57.333 58,57.333C58.088,57.333 58.174,57.316 58.255,57.283C58.336,57.249 58.41,57.2 58.471,57.138L60.835,54.775L65.225,56.422C65.257,56.434 65.284,56.455 65.303,56.483C65.323,56.511 65.333,56.544 65.333,56.578L65.333,56.667L64.333,56.667C63.715,56.667 63.122,56.913 62.684,57.351C62.247,57.788 62.001,58.381 62,59L62,64.195C62.001,64.454 62.068,64.708 62.196,64.933C62.323,65.159 62.507,65.347 62.728,65.481L63.929,66.202L63.436,68.174L60.826,69.218C60.616,68.744 60.35,68.296 60.034,67.884ZM66,70.222L64.724,68.521L65.124,66.919L65.228,66.981C65.461,67.121 65.728,67.195 66,67.195C66.272,67.195 66.539,67.121 66.772,66.981L66.876,66.919L67.276,68.521L66,70.222ZM74.882,64.093L71.966,67.884C71.649,68.296 71.384,68.744 71.174,69.219L68.564,68.175L68.071,66.202L69.272,65.481C69.493,65.348 69.677,65.159 69.804,64.934C69.932,64.708 69.999,64.454 70,64.195L70,59C70.001,58.468 69.819,57.952 69.484,57.539L71.836,56.195L74.146,59.083C74.209,59.161 74.288,59.224 74.378,59.268C74.468,59.311 74.567,59.334 74.667,59.334C74.767,59.334 74.865,59.311 74.956,59.268C75.046,59.224 75.125,59.161 75.187,59.083L77.498,56.195L80,57.625L80,62.381C79.073,62.128 78.092,62.156 77.182,62.46C76.271,62.765 75.47,63.333 74.882,64.093Z" style="fill:rgb(0,160,227);fill-rule:nonzero;"/>
    </g>
    <g transform="matrix(1,0,0,1,-24,-20)">
        <path d="M51.085,70.973L49.963,71.694L52,74.863L52,80L53.333,80L53.333,74.667C53.333,74.539 53.297,74.414 53.227,74.306L51.085,70.973Z" style="fill:rgb(0,160,227);fill-rule:nonzero;"/>
    </g>
</svg>
