<?xml version="1.0" encoding="UTF-8" standalone="no"?>
<!DOCTYPE svg PUBLIC "-//W3C//DTD SVG 1.1//EN" "http://www.w3.org/Graphics/SVG/1.1/DTD/svg11.dtd">
<svg width="100%" height="100%" viewBox="0 0 79 78" version="1.1" xmlns="http://www.w3.org/2000/svg" xmlns:xlink="http://www.w3.org/1999/xlink" xml:space="preserve" xmlns:serif="http://www.serif.com/" style="fill-rule:evenodd;clip-rule:evenodd;stroke-linejoin:round;stroke-miterlimit:2;">
    <g transform="matrix(1,0,0,1,-24,-20)">
        <path d="M103.013,42C103.013,29.858 93.155,20 81.013,20L46,20C33.858,20 24,29.858 24,42L24,76C24,88.142 33.858,98 46,98L81.013,98C93.155,98 103.013,88.142 103.013,76L103.013,42Z" style="fill:white;fill-opacity:0.7;"/>
    </g>
    <g transform="matrix(1,0,0,1,-24,-20)">
        <path d="M64,75.195C63.679,75.195 63.418,75.464 63.418,75.796C63.418,76.128 63.679,76.397 64,76.397C64.321,76.397 64.582,76.128 64.582,75.796C64.582,75.464 64.321,75.195 64,75.195ZM64,71.592C63.679,71.592 63.418,71.861 63.418,72.192C63.418,72.524 63.679,72.793 64,72.793C64.321,72.793 64.582,72.524 64.582,72.192C64.582,71.861 64.321,71.592 64,71.592ZM64,78.799C63.679,78.799 63.418,79.068 63.418,79.399C63.418,79.731 63.679,80 64,80C64.321,80 64.582,79.731 64.582,79.399C64.582,79.068 64.321,78.799 64,78.799ZM75.433,66.477L72.842,65.578C74.274,64.525 75.172,62.798 75.172,60.933C75.175,60.925 75.172,50.53 75.172,50.53C75.172,47.451 74.01,44.556 71.9,42.378C69.79,40.2 66.984,39 64,39C62.083,39 60.192,39.51 58.531,40.474C58.251,40.636 58.152,41.002 58.309,41.291C58.467,41.581 58.822,41.683 59.102,41.521C60.589,40.658 62.283,40.201 64,40.201C66.673,40.201 69.186,41.276 71.077,43.227C72.967,45.178 74.008,47.772 74.008,50.53L74.008,50.532C73.67,50.332 73.279,50.217 72.862,50.217L72.303,50.217C70.746,49.941 69.219,49.486 67.763,48.862C66.656,48.388 65.579,47.811 64.564,47.149C64.208,46.917 63.745,46.938 63.41,47.203C62.618,47.827 61.762,48.367 60.868,48.807C59.26,49.599 57.53,50.073 55.725,50.217L55.138,50.217C54.721,50.217 54.33,50.332 53.992,50.532L53.992,50.53C53.992,47.735 55.057,45.118 56.989,43.159C57.218,42.927 57.222,42.547 56.996,42.31C56.771,42.073 56.403,42.07 56.174,42.302C54.016,44.488 52.828,47.41 52.828,50.53L52.828,60.933C52.828,62.798 53.726,64.525 55.158,65.578L52.567,66.477C50.434,67.219 49,69.278 49,71.601L49,79.399C49,79.731 49.261,80 49.582,80C49.903,80 50.164,79.731 50.164,79.399L50.164,71.601C50.164,69.794 51.279,68.192 52.939,67.616L53.95,67.265C53.8,67.899 53.734,68.554 53.758,69.202C53.78,69.817 53.88,70.421 54.054,71.007C52.924,71.358 52.097,72.441 52.097,73.72L52.097,76.164C52.097,76.769 52.574,77.261 53.16,77.261L53.812,77.261C54.134,77.261 54.394,76.992 54.394,76.66C54.394,76.329 54.134,76.06 53.812,76.06L53.261,76.06L53.261,73.72C53.261,72.821 53.97,72.09 54.841,72.089C54.841,72.089 54.842,72.089 54.842,72.089C54.842,72.089 54.843,72.089 54.843,72.089C55.714,72.09 56.422,72.821 56.422,73.72L56.422,76.06L55.871,76.06C55.55,76.06 55.289,76.329 55.289,76.66C55.289,76.992 55.55,77.261 55.871,77.261L56.524,77.261C57.109,77.261 57.586,76.769 57.586,76.164L57.586,73.72C57.586,72.302 56.571,71.124 55.252,70.92C55.054,70.351 54.942,69.76 54.92,69.157C54.892,68.358 55.027,67.545 55.312,66.792L59.282,65.413L63.447,69.712C63.787,70.066 64.367,70.068 64.709,69.712L65.858,68.525C66.085,68.291 66.085,67.91 65.858,67.676C65.631,67.441 65.262,67.441 65.035,67.676L64.078,68.664L60.389,64.857C60.936,64.366 61.185,63.618 61.129,62.864C62.02,63.184 62.976,63.36 63.969,63.364C64.97,63.368 65.95,63.199 66.871,62.873C66.776,63.639 67.12,64.473 67.697,64.929L66.952,65.698C66.724,65.933 66.724,66.313 66.952,66.547C67.179,66.782 67.547,66.782 67.774,66.547L68.835,65.453L72.378,66.684C72.646,67.387 72.785,68.148 72.778,68.901C72.772,69.584 72.645,70.273 72.412,70.916C70.9,71.12 69.727,72.458 69.727,74.074C69.727,75.831 71.112,77.261 72.815,77.261C74.517,77.261 75.903,75.831 75.903,74.074C75.903,72.603 74.932,71.363 73.617,70.997C73.824,70.323 73.935,69.615 73.942,68.913C73.947,68.325 73.879,67.732 73.743,67.158L75.061,67.616C76.721,68.192 77.836,69.794 77.836,71.601L77.836,79.399C77.836,79.731 78.097,80 78.418,80C78.739,80 79,79.731 79,79.399L79,71.601C79,69.278 77.566,67.219 75.433,66.477ZM72.832,51.418L72.862,51.418C73.492,51.418 74.005,51.946 74.008,52.596L74.008,52.606C74.005,53.264 73.473,53.803 72.832,53.784L72.832,51.418ZM53.992,52.597C53.994,51.937 54.528,51.4 55.168,51.418L55.168,53.784C54.527,53.802 53.995,53.266 53.992,52.606L53.992,52.597ZM59.965,63.189C59.965,63.62 59.7,64.001 59.305,64.138L56.635,65.065C55.046,64.363 53.992,62.728 53.992,60.933L53.992,54.67C54.357,54.888 54.761,54.993 55.204,54.985C55.481,58.191 57.343,60.932 59.965,62.344L59.965,63.189ZM63.973,62.163C59.76,62.148 56.332,58.556 56.332,54.157L56.332,51.365C58.093,51.165 59.785,50.671 61.369,49.891C62.304,49.431 63.2,48.87 64.032,48.223C65.076,48.897 66.181,49.485 67.317,49.972C68.716,50.571 70.177,51.023 71.668,51.319L71.668,54.249C71.668,56.368 70.867,58.359 69.413,59.855C67.934,61.376 66.086,62.17 63.973,62.163ZM71.365,65.065L68.695,64.137C68.3,64.001 68.035,63.62 68.035,63.189L68.035,62.362C68.836,61.936 69.578,61.381 70.234,60.706C71.74,59.157 72.637,57.148 72.803,54.985C73.231,54.991 73.657,54.88 74.008,54.67L74.008,60.932C74.008,62.728 72.954,64.363 71.365,65.065ZM74.739,74.074C74.739,75.169 73.876,76.06 72.815,76.06C71.754,76.06 70.891,75.169 70.891,74.074C70.891,72.98 71.753,72.09 72.813,72.089C72.813,72.089 72.814,72.089 72.815,72.089C72.815,72.089 72.816,72.089 72.816,72.089C73.876,72.09 74.739,72.98 74.739,74.074ZM67.763,51.908C67.442,51.908 67.181,52.177 67.181,52.509L67.181,53.883C67.181,54.214 67.442,54.483 67.763,54.483C68.084,54.483 68.345,54.214 68.345,53.883L68.345,52.509C68.345,52.177 68.084,51.908 67.763,51.908ZM64.826,57.614C64.695,57.71 64.42,57.874 64.051,57.887C63.635,57.902 63.322,57.722 63.173,57.614C62.911,57.422 62.548,57.486 62.362,57.757C62.176,58.027 62.238,58.402 62.5,58.594C62.758,58.782 63.287,59.089 64,59.089C64.625,59.089 65.206,58.809 65.5,58.594C65.762,58.402 65.824,58.027 65.638,57.756C65.451,57.486 65.088,57.422 64.826,57.614ZM60.237,51.908C59.916,51.908 59.655,52.177 59.655,52.509L59.655,53.883C59.655,54.214 59.916,54.483 60.237,54.483C60.558,54.483 60.819,54.214 60.819,53.883L60.819,52.509C60.819,52.177 60.559,51.908 60.237,51.908Z" style="fill:rgb(0,160,227);fill-rule:nonzero;"/>
    </g>
</svg>
