<?xml version="1.0" encoding="UTF-8" standalone="no"?>
<!DOCTYPE svg PUBLIC "-//W3C//DTD SVG 1.1//EN" "http://www.w3.org/Graphics/SVG/1.1/DTD/svg11.dtd">
<svg width="100%" height="100%" viewBox="0 0 79 78" version="1.1" xmlns="http://www.w3.org/2000/svg" xmlns:xlink="http://www.w3.org/1999/xlink" xml:space="preserve" xmlns:serif="http://www.serif.com/" style="fill-rule:evenodd;clip-rule:evenodd;stroke-linejoin:round;stroke-miterlimit:2;">
    <g transform="matrix(1,0,0,1,-24,-20)">
        <path d="M103.013,42C103.013,29.858 93.155,20 81.013,20L46,20C33.858,20 24,29.858 24,42L24,76C24,88.142 33.858,98 46,98L81.013,98C93.155,98 103.013,88.142 103.013,76L103.013,42Z" style="fill:white;fill-opacity:0.7;"/>
    </g>
    <g transform="matrix(1,0,0,1,-24,-20)">
        <path d="M83.852,48.065C83.641,47.832 83.28,47.814 83.046,48.026L81.36,49.554C81.289,49.618 81.18,49.613 81.116,49.542L79.883,48.183C79.671,47.949 79.31,47.932 79.077,48.143C78.843,48.355 78.826,48.716 79.037,48.949L80.044,50.059L78.342,51.602C78.257,51.679 78.197,51.78 78.17,51.893L77.702,53.869C77.449,54.935 76.886,55.888 76.074,56.625L72.73,59.657C72.392,59.964 71.868,59.938 71.561,59.6C71.413,59.436 71.337,59.225 71.348,59.004C71.359,58.783 71.455,58.58 71.618,58.432L73.077,57.109C73.311,56.897 73.328,56.536 73.117,56.303C72.905,56.07 72.544,56.052 72.311,56.264L70.852,57.586C70.622,57.795 70.448,58.05 70.339,58.332C70.095,58.218 69.828,58.157 69.551,58.157L69.549,58.157C69.262,58.157 68.99,58.222 68.747,58.339C68.687,58.149 68.598,57.973 68.484,57.815L69.908,56.523C70.141,56.312 70.159,55.951 69.947,55.718C69.736,55.484 69.375,55.467 69.142,55.678L68.334,56.411C68.239,56.154 68.087,55.915 67.878,55.713L67.428,55.278L68.159,54.615C68.392,54.404 68.41,54.043 68.198,53.81C67.986,53.576 67.626,53.558 67.392,53.77L66.605,54.483L64.999,52.931C65.253,52.831 65.49,52.677 65.691,52.469C66.401,51.734 66.423,50.586 65.773,49.825L68.197,47.627C69.351,46.581 70.766,45.862 72.291,45.546C72.391,45.526 72.484,45.479 72.559,45.41L74.354,43.783L77.402,47.146C77.515,47.27 77.67,47.333 77.825,47.333C77.962,47.333 78.099,47.284 78.208,47.185C78.442,46.973 78.459,46.612 78.248,46.379L74.972,42.767C74.908,42.696 74.914,42.586 74.984,42.522L76.671,40.993C76.904,40.782 76.922,40.421 76.71,40.187C76.499,39.954 76.138,39.936 75.904,40.148L74.218,41.677C73.906,41.96 73.762,42.361 73.792,42.752L71.906,44.462C70.241,44.834 68.696,45.634 67.431,46.782L64.958,49.024L62.396,46.549C61.441,45.627 60.244,45.023 58.935,44.803L57.107,44.495L55.383,42.83C55.426,42.44 55.295,42.035 54.992,41.742L53.355,40.161C53.128,39.942 52.767,39.948 52.548,40.175C52.329,40.401 52.336,40.762 52.562,40.981L54.199,42.563C54.268,42.629 54.27,42.739 54.203,42.808L47.849,49.385C47.808,49.428 47.76,49.438 47.727,49.438C47.695,49.438 47.647,49.431 47.604,49.39L45.967,47.808C45.74,47.589 45.379,47.595 45.16,47.822C44.941,48.048 44.948,48.41 45.174,48.629L46.811,50.21C47.058,50.449 47.381,50.579 47.724,50.579C47.731,50.579 47.739,50.579 47.747,50.579C47.803,50.578 47.858,50.572 47.913,50.564L49.743,52.333C50.225,53.97 51.125,55.458 52.353,56.645L53.544,57.795C53.655,57.902 53.797,57.955 53.94,57.955C54.09,57.955 54.239,57.897 54.35,57.781C54.569,57.555 54.563,57.194 54.337,56.975L53.146,55.824C52.026,54.743 51.215,53.377 50.799,51.877C50.772,51.779 50.719,51.689 50.646,51.618L48.904,49.935L54.789,43.843L56.441,45.439C56.524,45.519 56.629,45.572 56.743,45.591L58.745,45.928C59.827,46.109 60.815,46.608 61.603,47.37L64.85,50.507C65.178,50.824 65.187,51.348 64.87,51.676C64.588,51.969 64.141,52.007 63.814,51.787L62.285,50.328C62.058,50.109 61.697,50.115 61.478,50.342C61.259,50.569 61.265,50.93 61.492,51.149L67.085,56.534C67.235,56.679 67.309,56.874 67.304,57.069C67.197,57.05 67.088,57.039 66.977,57.039L66.975,57.039C66.719,57.039 66.476,57.091 66.254,57.184C66.223,56.737 66.036,56.322 65.716,56.001C65.365,55.65 64.899,55.456 64.403,55.456L64.401,55.456C64.244,55.456 64.091,55.475 63.943,55.512L61.911,53.549C61.685,53.33 61.323,53.336 61.104,53.563C60.886,53.789 60.892,54.15 61.118,54.369L62.956,56.145C62.803,56.333 62.69,56.548 62.621,56.777C62.376,56.66 62.106,56.599 61.826,56.598L61.824,56.598C61.682,56.598 61.544,56.614 61.409,56.645L60.121,55.401C59.895,55.182 59.534,55.188 59.315,55.415C59.096,55.642 59.102,56.003 59.329,56.222L60.403,57.259C60.121,57.593 59.966,58.012 59.966,58.454L59.965,58.831L58.332,57.253C58.105,57.035 57.744,57.041 57.525,57.267C57.306,57.494 57.313,57.855 57.539,58.074L59.963,60.416L59.961,62.235C59.823,62.212 59.692,62.148 59.585,62.045L56.086,58.664C55.859,58.445 55.498,58.452 55.279,58.678C55.06,58.905 55.066,59.266 55.293,59.485L58.343,62.431C58.121,62.528 57.918,62.666 57.742,62.842C57.37,63.213 57.164,63.707 57.164,64.233L57.159,68.747C57.157,70.075 57.553,71.356 58.304,72.452L59.351,73.981L59.348,76.376C59.305,76.41 59.262,76.446 59.222,76.485C58.974,76.733 58.837,77.063 58.837,77.413L58.834,78.396C58.833,78.712 59.088,78.968 59.403,78.968L59.404,78.968C59.719,78.968 59.974,78.714 59.975,78.399L59.977,77.416C59.978,77.356 60.005,77.316 60.028,77.293C60.051,77.27 60.088,77.241 60.151,77.243L69.297,77.253C69.392,77.253 69.47,77.331 69.47,77.425L69.467,78.408C69.466,78.723 69.721,78.979 70.036,78.98L70.038,78.98C70.352,78.98 70.607,78.726 70.608,78.411L70.611,77.427C70.611,77.005 70.411,76.63 70.101,76.389L70.104,73.843C70.948,72.36 71.395,70.679 71.397,68.971L71.398,68.451C71.398,68.136 71.143,67.88 70.828,67.88C70.513,67.88 70.257,68.135 70.257,68.45L70.256,68.97C70.254,70.527 69.835,72.059 69.042,73.399C68.991,73.487 68.963,73.587 68.963,73.689L68.96,76.111L60.49,76.102L60.492,73.805C60.492,73.69 60.457,73.577 60.392,73.482L59.245,71.807C58.625,70.902 58.298,69.845 58.3,68.748L58.305,64.234C58.305,64.013 58.391,63.805 58.548,63.649C58.704,63.493 58.911,63.408 59.132,63.408C59.588,63.408 59.96,63.78 59.959,64.236L59.957,66.205C59.957,66.52 60.212,66.776 60.527,66.776C60.842,66.776 61.098,66.521 61.098,66.206L61.106,58.456C61.107,58.264 61.182,58.084 61.317,57.949C61.453,57.814 61.633,57.739 61.824,57.739C62.015,57.739 62.196,57.814 62.332,57.95C62.467,58.086 62.541,58.266 62.541,58.457L62.535,64.239C62.534,64.554 62.789,64.809 63.105,64.81C63.4,64.81 63.643,64.585 63.673,64.298C63.675,64.279 63.676,64.259 63.676,64.24L63.684,57.313C63.684,57.121 63.758,56.942 63.894,56.806C64.03,56.671 64.209,56.597 64.401,56.597C64.592,56.597 64.773,56.672 64.909,56.807C65.044,56.943 65.118,57.123 65.118,57.315L65.11,64.241C65.11,64.557 65.365,64.812 65.68,64.813C65.975,64.813 66.219,64.588 66.248,64.301C66.25,64.282 66.251,64.262 66.251,64.243L66.257,58.896C66.257,58.705 66.332,58.525 66.468,58.389C66.603,58.254 66.783,58.18 66.975,58.18C67.37,58.18 67.692,58.503 67.692,58.898L67.686,64.244C67.686,64.559 67.941,64.815 68.256,64.815C68.551,64.815 68.794,64.591 68.824,64.304C68.826,64.285 68.827,64.265 68.827,64.246L68.832,60.014C68.832,59.619 69.154,59.298 69.549,59.298C69.741,59.298 69.921,59.373 70.057,59.509C70.192,59.645 70.266,59.825 70.266,60.016L70.26,66.013C70.259,66.328 70.514,66.584 70.829,66.584C71.144,66.584 71.4,66.329 71.4,66.014L71.406,60.858C71.616,60.947 71.843,60.999 72.078,61.01C72.111,61.012 72.143,61.013 72.176,61.013C72.666,61.013 73.131,60.834 73.496,60.503L76.84,57.47C77.824,56.578 78.506,55.424 78.812,54.132L79.24,52.328L81.014,50.719C81.068,50.729 81.123,50.736 81.18,50.739C81.201,50.74 81.223,50.74 81.245,50.74C81.572,50.74 81.883,50.621 82.126,50.4L83.813,48.871C84.046,48.659 84.064,48.298 83.852,48.065Z" style="fill:rgb(0,160,227);fill-rule:nonzero;"/>
    </g>
</svg>
