<svg width="14" height="15" viewBox="0 0 14 15" fill="none" xmlns="http://www.w3.org/2000/svg">
<path d="M12.7247 4.24805H1.2753C0.572101 4.24805 0 4.83946 0 5.56641V10.8398C0 11.5668 0.572101 12.1582 1.2753 12.1582H12.7247C13.4279 12.1582 14 11.5668 14 10.8398V5.56641C14 4.83946 13.4279 4.24805 12.7247 4.24805ZM3.36513 8.88686C3.25645 8.88686 3.07076 8.88765 2.89695 8.88855V9.90214C2.89695 10.1448 2.70662 10.3416 2.47185 10.3416C2.23708 10.3416 2.04675 10.1448 2.04675 9.90214L2.04049 6.56391C2.04012 6.44713 2.08475 6.33498 2.1645 6.25225C2.24425 6.16951 2.35262 6.12305 2.46559 6.12305H3.36513C4.11206 6.12305 4.71976 6.74297 4.71976 7.50495C4.71976 8.26693 4.11206 8.88686 3.36513 8.88686ZM7.01443 10.2356C6.76123 10.2402 6.12792 10.2427 6.10108 10.2428C6.10054 10.2428 6.1 10.2428 6.09947 10.2428C5.9873 10.2428 5.87963 10.197 5.8 10.1152C5.71996 10.0331 5.67479 9.9215 5.67436 9.80493C5.67434 9.79321 5.66802 6.56335 5.66802 6.56335C5.66782 6.44666 5.71248 6.33466 5.79223 6.25207C5.87198 6.16948 5.98024 6.12305 6.09312 6.12305H6.98101C7.99253 6.12305 8.67212 6.95086 8.67212 8.18294C8.67212 9.35499 7.97496 10.2183 7.01443 10.2356ZM11.3706 7.71533C11.6054 7.71533 11.7957 7.91209 11.7957 8.15479C11.7957 8.39748 11.6054 8.59424 11.3706 8.59424H10.5992V9.84375C10.5992 10.0864 10.4089 10.2832 10.1741 10.2832C9.93932 10.2832 9.74899 10.0864 9.74899 9.84375V6.52857C9.74899 6.28588 9.93932 6.08912 10.1741 6.08912H11.4739C11.7086 6.08912 11.899 6.28588 11.899 6.52857C11.899 6.77127 11.7086 6.96803 11.4739 6.96803H10.5992V7.71533H11.3706Z" fill="#F14260"/>
<path d="M6.98101 7.00195H6.51898C6.51964 7.39863 6.52196 8.9799 6.52315 9.36161C6.70005 9.36044 6.88947 9.35883 6.99957 9.35684C7.56765 9.34658 7.82195 8.75985 7.82195 8.18294C7.82192 7.90588 7.7613 7.00195 6.98101 7.00195Z" fill="#F14260"/>
<path d="M3.36513 7.00195H2.89196C2.89247 7.19751 2.89296 7.40555 2.89296 7.50495C2.89296 7.62111 2.89375 7.82259 2.89466 8.00968C3.06912 8.00877 3.25548 8.00795 3.36516 8.00795C3.63858 8.00795 3.86958 7.77762 3.86958 7.50495C3.86958 7.23229 3.63855 7.00195 3.36513 7.00195Z" fill="#F14260"/>
<path d="M12.2841 3.36914C12.1856 3.08994 12.0326 2.83189 11.8299 2.61094L10.0642 0.685518C9.66468 0.249873 9.10247 0 8.52172 0H2.86235C2.15915 0 1.58704 0.591416 1.58704 1.31836V3.36914H12.2841Z" fill="#F14260"/>
<path d="M1.58704 13.0371V13.6816C1.58704 14.4086 2.15915 15 2.86235 15H11.1377C11.8409 15 12.413 14.4086 12.413 13.6816V13.0371H1.58704Z" fill="#F14260"/>
</svg>
