<svg width="18" height="18" viewBox="0 0 18 18" fill="none" xmlns="http://www.w3.org/2000/svg">
<path d="M13.6846 11.9074C13.0965 11.3268 12.3624 11.3268 11.7781 11.9074C11.3323 12.3493 10.8866 12.7913 10.4484 13.2408C10.3285 13.3644 10.2274 13.3906 10.0813 13.3082C9.79288 13.1509 9.48574 13.0235 9.20856 12.8512C7.91632 12.0384 6.83383 10.9934 5.87495 9.81729C5.39926 9.23297 4.976 8.60745 4.6801 7.90327C4.62017 7.76094 4.6314 7.6673 4.74752 7.55119C5.19325 7.12044 5.62774 6.67845 6.06598 6.23647C6.67652 5.62219 6.67652 4.90303 6.06223 4.285C5.71389 3.93291 5.36555 3.58831 5.0172 3.23622C4.65762 2.87664 4.30179 2.51332 3.93846 2.15748C3.3504 1.5844 2.61626 1.5844 2.03194 2.16123C1.58246 2.60321 1.15172 3.05643 0.694749 3.49092C0.271493 3.89171 0.0579921 4.38238 0.0130446 4.95547C-0.0581223 5.88813 0.170361 6.76835 0.492485 7.6261C1.15172 9.40153 2.15554 10.9784 3.37287 12.4242C5.0172 14.3795 6.97991 15.9264 9.27598 17.0426C10.3098 17.5445 11.381 17.9303 12.5459 17.994C13.3475 18.0389 14.0442 17.8367 14.6023 17.2112C14.9843 16.7842 15.4151 16.3946 15.8196 15.9863C16.4189 15.3795 16.4226 14.6454 15.8271 14.0461C15.1154 13.3307 14.4 12.619 13.6846 11.9074Z" fill="#00A0E3"/>
<path d="M12.9692 8.92209L14.3513 8.68611C14.1341 7.41634 13.5348 6.26644 12.6246 5.3525C11.6619 4.38988 10.4446 3.78308 9.10368 3.5958L8.90891 4.98543C9.94645 5.13151 10.8903 5.59971 11.6357 6.34509C12.3399 7.04927 12.8006 7.94073 12.9692 8.92209Z" fill="#00A0E3"/>
<path d="M15.1304 2.9141C13.5348 1.31846 11.5159 0.310887 9.28722 0L9.09245 1.38963C11.0177 1.65931 12.7632 2.53204 14.1416 3.90669C15.4488 5.21391 16.3065 6.86574 16.6174 8.68237L17.9995 8.44639C17.6362 6.34135 16.6436 4.43108 15.1304 2.9141Z" fill="#00A0E3"/>
</svg>
