<svg width="24" height="24" viewBox="0 0 24 24" fill="none" xmlns="http://www.w3.org/2000/svg">
<path d="M18.2461 15.8765C17.462 15.1024 16.4832 15.1024 15.7041 15.8765C15.1098 16.4658 14.5155 17.0551 13.9312 17.6544C13.7713 17.8192 13.6365 17.8542 13.4417 17.7443C13.0572 17.5345 12.6476 17.3647 12.2781 17.135C10.5551 16.0513 9.11178 14.6579 7.83327 13.0897C7.19901 12.3106 6.63467 11.4766 6.24013 10.5377C6.16022 10.3479 6.1752 10.2231 6.33002 10.0682C6.92433 9.49392 7.50365 8.90461 8.08797 8.31529C8.90202 7.49625 8.90202 6.53737 8.08298 5.71333C7.61852 5.24388 7.15406 4.78441 6.6896 4.31496C6.21016 3.83552 5.73572 3.35109 5.25128 2.87664C4.4672 2.11253 3.48834 2.11253 2.70925 2.88164C2.10995 3.47095 1.53562 4.07524 0.926332 4.65457C0.361991 5.18894 0.0773229 5.84318 0.0173928 6.60729C-0.0774964 7.85084 0.227148 9.02447 0.656647 10.1681C1.53562 12.5354 2.87406 14.6379 4.49716 16.5657C6.6896 19.1726 9.30655 21.2352 12.368 22.7235C13.7464 23.3927 15.1747 23.9071 16.7279 23.992C17.7966 24.0519 18.7256 23.7822 19.4697 22.9482C19.9791 22.3789 20.5534 21.8595 21.0928 21.3151C21.8919 20.5061 21.8969 19.5272 21.1028 18.7281C20.1539 17.7743 19.2 16.8254 18.2461 15.8765Z" fill="#363B57"/>
<path d="M17.2922 11.8961L19.1351 11.5815C18.8454 9.88846 18.0463 8.35525 16.8328 7.13667C15.5493 5.85317 13.9262 5.04411 12.1382 4.7944L11.8785 6.64724C13.2619 6.84201 14.5205 7.46629 15.5143 8.46012C16.4532 9.39903 17.0675 10.5876 17.2922 11.8961Z" fill="#363B57"/>
<path d="M20.1739 3.88546C18.0464 1.75795 15.3545 0.414516 12.383 0L12.1233 1.85284C14.6903 2.21242 17.0175 3.37606 18.8554 5.20892C20.5984 6.95189 21.742 9.15431 22.1566 11.5765L23.9994 11.2619C23.515 8.45513 22.1915 5.9081 20.1739 3.88546Z" fill="#363B57"/>
</svg>
