<svg width="24" height="24" viewBox="0 0 24 24" fill="none" xmlns="http://www.w3.org/2000/svg">
<circle cx="12" cy="12" r="12" fill="#C5DDE7"/>
<path d="M15.9496 11.4554C15.9652 9.62256 14.4041 7.94232 12.4697 7.70997C12.4313 7.7054 12.3894 7.69847 12.345 7.69111C12.2492 7.67524 12.1502 7.65894 12.0503 7.65894C11.6538 7.65894 11.5479 7.93742 11.52 8.10353C11.4928 8.26501 11.5187 8.40062 11.5967 8.50678C11.728 8.68531 11.959 8.71699 12.1446 8.74241C12.199 8.74993 12.2503 8.75691 12.2933 8.76656C14.0312 9.15491 14.6164 9.76545 14.9024 11.4886C14.9094 11.5307 14.9126 11.5826 14.9159 11.6377C14.9284 11.8437 14.9544 12.2722 15.4151 12.2722H15.4152C15.4535 12.2722 15.4948 12.2689 15.5377 12.2624C15.9667 12.1972 15.9533 11.8054 15.9468 11.6172C15.945 11.5642 15.9433 11.514 15.9477 11.4807C15.9489 11.4723 15.9495 11.4638 15.9496 11.4554Z" fill="white"/>
<path d="M11.9377 7.03711C11.9892 7.04082 12.0379 7.04437 12.0785 7.05059C14.9324 7.4895 16.2449 8.84166 16.6086 11.7179C16.6148 11.7668 16.6158 11.8264 16.6168 11.8896C16.6204 12.1143 16.6279 12.5818 17.1299 12.5914L17.1455 12.5916C17.303 12.5916 17.4282 12.5441 17.5178 12.4504C17.6741 12.2869 17.6632 12.0441 17.6544 11.8489C17.6522 11.801 17.6502 11.7559 17.6507 11.7164C17.687 8.77478 15.1407 6.1073 12.2016 6.00813C12.1895 6.00772 12.1778 6.00838 12.1661 6.01003C12.1603 6.01087 12.1496 6.01193 12.1313 6.01193C12.102 6.01193 12.0659 6.00939 12.0277 6.0068C11.9814 6.00363 11.929 6 11.8759 6C11.4079 6 11.3189 6.33267 11.3075 6.53097C11.2813 6.9893 11.7246 7.02155 11.9377 7.03711Z" fill="white"/>
<path d="M16.4716 15.4352C16.4109 15.3888 16.3482 15.3409 16.2894 15.2935C15.9779 15.0428 15.6464 14.8116 15.3257 14.5881C15.2592 14.5418 15.1927 14.4954 15.1264 14.4489C14.7157 14.1604 14.3465 14.0202 13.9977 14.0202C13.5278 14.0202 13.1182 14.2798 12.7802 14.7917C12.6304 15.0186 12.4487 15.129 12.2247 15.129C12.0923 15.129 11.9418 15.0912 11.7775 15.0166C10.452 14.4155 9.50542 13.4939 8.96416 12.2773C8.70251 11.6893 8.78734 11.305 9.24783 10.9921C9.50933 10.8147 9.99607 10.4842 9.96159 9.85154C9.92254 9.13303 8.33719 6.97108 7.66921 6.72555C7.38641 6.62155 7.08926 6.62058 6.78444 6.72314C6.01653 6.98129 5.46547 7.43464 5.19069 8.03409C4.92515 8.61333 4.93714 9.29345 5.22538 10.0009C6.0586 12.0465 7.23005 13.8299 8.70734 15.3016C10.1533 16.7423 11.9306 17.9224 13.9897 18.809C14.1753 18.8889 14.37 18.9324 14.5121 18.9642C14.5605 18.9751 14.6024 18.9844 14.6329 18.9927C14.6496 18.9973 14.6669 18.9998 14.6842 18.9999L14.7005 19C14.7005 19 14.7005 19 14.7006 19C15.669 19 16.8319 18.115 17.189 17.1061C17.5019 16.2227 16.9306 15.786 16.4716 15.4352Z" fill="white"/>
<path d="M12.3667 9.37358C12.2009 9.37777 11.8558 9.38633 11.7347 9.73779C11.6781 9.90202 11.6849 10.0446 11.7549 10.1616C11.8577 10.3333 12.0547 10.3859 12.2338 10.4148C12.8834 10.519 13.2171 10.8782 13.2838 11.5452C13.3148 11.8562 13.5242 12.0734 13.7931 12.0734H13.7932C13.813 12.0734 13.8333 12.0722 13.8536 12.0697C14.1769 12.0313 14.3337 11.7937 14.3196 11.3636C14.3247 10.9148 14.0899 10.4052 13.6904 9.99936C13.2894 9.59225 12.8062 9.36297 12.3667 9.37358Z" fill="white"/>
</svg>
