<svg display="none" xmlns="http://www.w3.org/2000/svg">
            <symbol id="instagram" viewBox="0 0 19 19">
                <path d="M9.68737 19C9.62445 19 9.56154 19 9.49819 18.9997C8.00883 19.0033 6.63268 18.9655 5.29438 18.884C4.0674 18.8094 2.94741 18.3854 2.0553 17.658C1.1945 16.9561 0.606674 16.007 0.308194 14.8375C0.048418 13.8193 0.0346464 12.8198 0.0214547 11.8531C0.011887 11.1595 0.0020295 10.3375 0 9.50171C0.0020295 8.6624 0.011887 7.84048 0.0214547 7.14686C0.0346464 6.18027 0.048418 5.18078 0.308194 4.16244C0.606674 2.99291 1.1945 2.04387 2.0553 1.34198C2.94741 0.614572 4.0674 0.190568 5.29452 0.115914C6.63283 0.0345919 8.00926 -0.00338736 9.50181 0.000236614C10.9916 -0.00295248 12.3673 0.0345919 13.7056 0.115914C14.9326 0.190568 16.0526 0.614572 16.9447 1.34198C17.8056 2.04387 18.3933 2.99291 18.6918 4.16244C18.9516 5.18063 18.9654 6.18027 18.9785 7.14686C18.9881 7.84048 18.9981 8.6624 19 9.49823V9.50171C18.9981 10.3375 18.9881 11.1595 18.9785 11.8531C18.9654 12.8197 18.9517 13.8192 18.6918 14.8375C18.3933 16.007 17.8056 16.9561 16.9447 17.658C16.0526 18.3854 14.9326 18.8094 13.7056 18.884C12.424 18.962 11.1074 19 9.68737 19ZM9.49819 17.5153C10.9633 17.5188 12.3086 17.4818 13.6155 17.4024C14.5432 17.346 15.3476 17.0449 16.0066 16.5076C16.6158 16.0108 17.0353 15.3254 17.2535 14.4705C17.4698 13.6229 17.4822 12.7128 17.4943 11.8328C17.5037 11.1438 17.5135 10.3277 17.5156 9.49997C17.5135 8.67211 17.5037 7.85614 17.4943 7.16715C17.4822 6.2871 17.4698 5.37705 17.2535 4.52933C17.0353 3.67437 16.6158 2.989 16.0066 2.49223C15.3476 1.95501 14.5432 1.65393 13.6155 1.59754C12.3086 1.51796 10.9633 1.48128 9.50167 1.48447C8.03681 1.48099 6.69139 1.51796 5.38454 1.59754C4.45677 1.65393 3.65237 1.95501 2.99336 2.49223C2.38422 2.989 1.9647 3.67437 1.74653 4.52933C1.53024 5.37705 1.51777 6.28696 1.50574 7.16715C1.49632 7.85672 1.48646 8.67327 1.48443 9.50171C1.48646 10.3265 1.49632 11.1432 1.50574 11.8328C1.51777 12.7128 1.53024 13.6229 1.74653 14.4705C1.9647 15.3254 2.38422 16.0108 2.99336 16.5076C3.65237 17.0448 4.45677 17.3459 5.38454 17.4023C6.69139 17.4818 8.0371 17.519 9.49819 17.5153ZM9.46282 14.1387C6.90507 14.1387 4.82397 12.0578 4.82397 9.49997C4.82397 6.94217 6.90507 4.86129 9.46282 4.86129C12.0207 4.86129 14.1017 6.94217 14.1017 9.49997C14.1017 12.0578 12.0207 14.1387 9.46282 14.1387ZM9.46282 6.34567C7.72354 6.34567 6.3084 7.76076 6.3084 9.49997C6.3084 11.2392 7.72354 12.6543 9.46282 12.6543C11.2022 12.6543 12.6172 11.2392 12.6172 9.49997C12.6172 7.76076 11.2022 6.34567 9.46282 6.34567ZM14.6212 3.37691C14.0064 3.37691 13.5079 3.87528 13.5079 4.49019C13.5079 5.10511 14.0064 5.60348 14.6212 5.60348C15.2362 5.60348 15.7345 5.10511 15.7345 4.49019C15.7345 3.87528 15.2362 3.37691 14.6212 3.37691Z" />
            </symbol>

            <symbol id="youtube" viewBox="0 0 22 16">
                <path d="M10.9992 15.9919C10.9974 15.9919 10.9954 15.9919 10.9933 15.9919C10.3295 15.9873 4.46091 15.9338 2.79822 15.4841C1.63621 15.1718 0.71893 14.2555 0.405728 13.0933C-0.0293314 11.46 -0.00163662 8.3154 0.00138462 8.0643C-0.00146877 7.81437 -0.0294992 4.64375 0.404385 2.997C0.404889 2.99549 0.405224 2.99381 0.405728 2.9923C0.715406 1.84339 1.65333 0.898744 2.79537 0.585542C2.79822 0.584702 2.80124 0.584031 2.80409 0.583192C4.44799 0.151154 10.3282 0.0982819 10.9933 0.09375H11.0053C11.6708 0.0982819 17.555 0.151825 19.2024 0.602158C20.3614 0.913682 21.278 1.82878 21.592 2.98945C22.0434 4.63737 22.0016 7.81488 21.9971 8.0831C22.0002 8.34729 22.0266 11.4637 21.5941 13.1052C21.5937 13.1069 21.5932 13.1084 21.5929 13.1099C21.2795 14.2721 20.3624 15.1884 19.199 15.5011C19.1975 15.5016 19.1959 15.5019 19.1943 15.5024C17.5506 15.9343 11.6703 15.9872 11.0053 15.9919C11.0033 15.9919 11.0012 15.9919 10.9992 15.9919ZM2.06573 3.43776C1.68371 4.89132 1.7198 8.0215 1.72014 8.05305V8.07571C1.70872 8.94382 1.74884 11.4578 2.0659 12.6485C2.21965 13.2187 2.672 13.6704 3.2457 13.8246C4.47249 14.1565 9.25227 14.2609 10.9992 14.2731C12.7507 14.2609 17.5375 14.1593 18.7553 13.8408C19.3271 13.686 19.778 13.2358 19.9327 12.665C20.2501 11.4568 20.2899 8.95506 20.2783 8.0925C20.2783 8.08343 20.2783 8.07437 20.2785 8.06531C20.2943 7.18679 20.2632 4.64341 19.9342 3.44314C19.9339 3.44196 19.9335 3.44079 19.9334 3.43961C19.779 2.86692 19.3264 2.41524 18.7527 2.26099C17.5379 1.92882 12.7504 1.82476 10.9992 1.8125C9.24891 1.82476 4.46679 1.92614 3.24536 2.24437C2.68257 2.40047 2.21999 2.86826 2.06573 3.43776ZM8.80865 11.5231V4.56234L14.8243 8.04281L8.80865 11.5231Z" />
            </symbol>

            <symbol id="facebook" viewBox="0 0 11 21">
                <path d="M0.647008 12.1949H2.81923V20.3429C2.81923 20.7051 3.10823 20.9991 3.46624 20.9991L6.92299 21C7.281 21 7.56999 20.7051 7.56999 20.3438V12.1957H9.62921C9.9553 12.1957 10.2305 11.949 10.271 11.6209L10.7007 8.12088C10.749 7.73063 10.4479 7.38325 10.0588 7.38325H7.56999C7.66748 5.22113 7.19473 4.5815 8.58105 4.5815C9.51965 4.46775 11 4.94988 11 3.92525V0.795375C11 0.46725 10.761 0.189875 10.441 0.14525C10.1701 0.107625 9.09952 0 7.77186 0C1.72449 0 2.96934 6.8005 2.82009 7.38238H0.647008C0.28986 7.38238 0 7.67638 0 8.03863V11.5386C0 11.9009 0.28986 12.1949 0.647008 12.1949ZM1.29402 8.69575H3.46624C3.82339 8.69575 4.11325 8.40175 4.11325 8.0395V5.28238C4.11325 2.75975 5.44608 1.31338 7.771 1.31338C8.52843 1.31338 9.22547 1.351 9.70512 1.3895V3.26988C9.35833 3.44925 6.27512 2.49637 6.27512 5.62975V8.04038C6.27512 8.40263 6.56498 8.69663 6.92212 8.69663H9.32554L9.05639 10.8841H6.92212C6.56498 10.8841 6.27512 11.1781 6.27512 11.5404V19.6875H4.11411V11.5395C4.11411 11.1772 3.82425 10.8832 3.4671 10.8832H1.29402V8.69575Z"/>
            </symbol>
        </svg>
