<svg width="229" height="46" viewBox="0 0 229 46" fill="none" xmlns="http://www.w3.org/2000/svg">
<path d="M206.153 0H22.847C10.2289 0 0 10.2975 0 23C0 35.7025 10.2289 46 22.847 46H206.153C218.771 46 229 35.7025 229 23C229 10.2975 218.771 0 206.153 0Z" fill="white"/>
<path d="M34.9695 32.3389L36.0382 27.6974H39.977L38.9083 32.3389H42.9387L44.0074 27.6974H47.2745V24.5622H44.7402L46.0226 19.1831H48.8011V16.0478H46.7554L47.8546 11.4064H43.8242L42.725 16.0478H38.7862L39.8854 11.4064H35.855L34.7558 16.0478H31.4582V19.1831H34.023L32.7406 24.5622H29.9315V27.6974H32.0078L30.9391 32.3389H34.9695ZM38.0534 19.1831H41.9922L40.7098 24.5622H36.771L38.0534 19.1831ZM56.7253 32.3389V23.5478H60.1755L66.0074 32.3389H71.0759L63.7479 21.304L70.679 10.8224H65.5799L60.1755 19.3675H56.7253V10.8224H52.1453V32.3389H56.7253ZM82.0109 17.5847V27.2056C81.3697 28.097 80.24 29.0807 78.7133 29.0807C76.9729 29.0807 75.9042 28.1278 75.9042 26.1606V17.5847H71.6601V26.7138C71.6601 30.1257 73.6448 32.7692 77.6141 32.7692C79.6904 32.7692 81.3697 31.7856 82.4994 30.4639V32.3389H86.255V17.5847H82.0109ZM89.212 21.7036C89.212 26.9905 97.4865 25.9454 97.4865 28.3122C97.4865 29.1421 96.4789 29.4188 94.9217 29.4188C93.1508 29.4188 90.9219 28.8962 89.3341 27.8511V31.386C90.8303 32.2774 92.9371 32.7692 95.166 32.7692C98.6773 32.7692 101.822 31.6934 101.822 28.22C101.822 22.8101 93.5477 24.0396 93.5477 21.5806C93.5477 20.6892 94.6469 20.4126 95.5935 20.4126C97.3339 20.4126 99.4712 21.0581 100.723 21.9187V18.4146C99.2269 17.6769 97.3949 17.1544 95.3187 17.1544C92.2348 17.1544 89.212 18.2917 89.212 21.7036ZM105.503 13.2814V17.5847H103.03V21.181H105.503V27.7897C105.503 31.4475 107.946 32.7692 110.786 32.7692C112.251 32.7692 113.595 32.5233 114.725 32.1237V28.6811C113.869 29.0192 113.046 29.1729 112.068 29.1729C110.481 29.1729 109.718 28.4966 109.718 26.9597V21.181H114.358V17.5847H109.718V12.2671L105.503 13.2814ZM116.342 24.9618C116.342 30.1257 120.189 32.7692 124.433 32.7692C128.708 32.7692 132.524 30.1257 132.524 24.9618C132.524 19.7978 128.708 17.1544 124.433 17.1544C120.189 17.1544 116.342 19.7978 116.342 24.9618ZM128.219 24.9618C128.219 27.2364 126.876 28.9577 124.433 28.9577C122.021 28.9577 120.678 27.2364 120.678 24.9618C120.678 22.6872 122.021 20.9659 124.433 20.9659C126.876 20.9659 128.219 22.6872 128.219 24.9618Z" fill="#00AEEF"/>
<path d="M149.952 10.8223V19.4903H140.364V10.8223H135.784V32.3388H140.364V23.6707H149.952V32.3388H154.532V10.8223H149.952ZM157.43 24.9617C157.43 30.0949 161.278 32.7691 165.919 32.7691C168.117 32.7691 169.919 32.431 171.293 31.8469V28.4965C170.041 29.0498 168.545 29.3879 166.866 29.3879C164.453 29.3879 162.194 28.4965 161.705 26.3449H172.026C173.002 21.9801 171.048 17.1543 164.972 17.1543C161.675 17.1543 157.43 19.3981 157.43 24.9617ZM168.209 23.5785H161.675C161.736 21.5498 163.324 20.4125 165.125 20.4125C167.782 20.4125 168.362 22.5641 168.209 23.5785ZM175.014 9.90015V32.3388H179.258V9.90015H175.014ZM186.67 19.7362V17.5846H182.914V39.1011H187.159V30.7711C188.104 31.8162 189.662 32.7691 191.983 32.7691C196.624 32.7691 199.127 28.9883 199.127 24.9617C199.127 20.935 196.624 17.1543 191.983 17.1543C189.265 17.1543 187.586 18.4145 186.67 19.7362ZM194.792 24.9617C194.792 27.267 193.357 29.1728 190.945 29.1728C189.082 29.1728 187.708 28.0047 187.128 26.7137V23.2096C187.708 21.9186 189.082 20.7506 190.945 20.7506C193.357 20.7506 194.792 22.6563 194.792 24.9617Z" fill="#F13656"/>
</svg>
